<svg width="600" height="600" viewBox="0 0 600 600" fill="none" xmlns="http://www.w3.org/2000/svg">
<path d="M95.3905 117.773C82.7342 120.469 74.0623 126.562 69.6092 135.703C67.7342 139.336 67.3827 142.969 67.3827 158.555C67.3827 176.719 67.4998 177.187 70.1952 179.414C72.7733 181.523 75.9373 181.641 155.742 181.641C236.484 181.641 238.594 181.758 243.75 184.102C255.234 189.258 260.156 197.93 260.156 212.812C260.156 221.016 259.687 223.242 256.992 228.516C252.89 236.133 246.328 240.937 238.008 242.578C234.14 243.281 200.625 243.75 151.172 243.75C59.8827 243.75 67.8514 242.812 67.0311 254.062C66.6795 259.57 67.0311 261.328 69.0233 263.906L71.6014 267.07L130.43 267.422C184.805 267.773 189.609 267.891 194.297 270C200.742 272.812 207.89 281.016 209.765 287.695C211.875 295.078 210.82 308.672 207.656 314.883C204.609 320.742 197.812 326.602 192.187 328.125C189.844 328.828 165 329.297 132.656 329.297C71.953 329.297 70.3123 329.414 67.8514 335.977C67.0311 338.086 66.7967 351.562 67.0311 375C67.4998 414.961 67.617 416.016 75.9373 424.687C82.2655 431.25 88.4764 433.711 101.367 434.414C116.719 435.352 118.008 434.883 118.945 427.969C121.406 408.047 126.445 396.562 137.695 384.492C146.015 375.703 156.445 369.023 167.578 365.508C178.242 361.992 196.758 361.992 207.422 365.508C230.976 373.008 250.43 394.453 254.297 417.187C255.117 421.406 256.055 426.914 256.406 429.492L257.226 434.18L325.664 434.531C375.234 434.648 394.57 434.414 395.625 433.477C396.562 432.656 397.265 429.844 397.265 426.68C397.265 412.383 404.765 395.625 416.601 383.672C430.898 369.258 445.078 363.047 464.648 362.93C484.219 362.812 500.273 369.258 513.75 382.734C525.117 394.102 531.211 406.992 533.789 424.805L535.078 434.18H556.172C576.211 434.18 577.383 434.062 582.89 431.25C590.039 427.617 595.781 420.937 598.359 413.437C600 408.516 600.117 402.422 599.765 367.031C599.18 322.5 598.476 316.875 592.031 307.617C587.695 301.406 583.476 299.18 566.836 294.492C549.492 289.57 541.406 285.937 536.836 280.547C534.844 278.32 526.406 262.969 517.969 246.328C509.648 229.805 501.562 214.922 500.156 213.281C495.117 207.773 486.68 201.562 479.765 198.398C473.086 195.352 471.914 195.234 448.594 194.531C435.351 194.18 423.984 193.477 423.398 193.008C422.93 192.422 422.226 179.297 421.875 163.711L421.289 135.352L418.008 129.844C414.258 123.398 409.687 119.883 402.305 117.656C394.453 115.312 106.172 115.43 95.3905 117.773ZM469.101 220.078C482.578 226.758 486.328 231.562 501.914 262.969C509.531 278.32 515.508 291.211 515.039 291.562C514.57 292.031 493.945 292.383 469.219 292.383C430.43 292.383 423.984 292.148 423.047 290.625C421.758 288.516 421.406 217.617 422.695 216.328C423.164 215.859 432.07 215.625 442.383 215.859C461.015 216.211 461.25 216.211 469.101 220.078Z" fill="#4576D4"/>
<path d="M44.8828 195.352C43.3594 195.586 40.6641 197.461 38.6719 199.336C35.3906 202.734 35.1562 203.438 35.1562 212.227C35.1562 220.781 35.3906 221.719 38.5547 225.234L41.9531 229.102L140.039 229.453L238.125 229.688L241.992 225.82C251.367 216.445 247.383 197.695 235.43 195.234C231.328 194.414 49.1016 194.531 44.8828 195.352Z" fill="#4576D4"/>
<path d="M7.3827 283.125C1.99207 285.82 -0.351679 291.563 0.234258 300.703C0.585821 305.859 1.40613 308.789 2.92957 310.664C8.20301 316.524 7.03114 316.406 97.6171 316.406C144.375 316.406 184.219 316.055 186.211 315.703C188.32 315.234 191.484 313.359 193.476 311.484C196.641 308.203 196.875 307.383 196.875 298.945C196.875 288.984 195.469 285.938 189.844 283.008C186.914 281.484 174.258 281.25 98.789 281.25C21.5624 281.25 10.6639 281.484 7.3827 283.125Z" fill="#4576D4"/>
<path d="M174.023 380.625C164.062 383.438 157.5 387.188 150.351 394.453C138.867 405.938 133.125 423.398 135.703 438.984C140.508 467.695 167.109 487.383 195.234 482.93C223.711 478.594 243.867 451.289 239.297 423.516C234.14 392.227 203.789 372.305 174.023 380.625ZM196.406 410.273C201.797 411.914 207.539 418.477 209.179 425.156C213.047 440.039 202.851 453.516 187.5 453.516C167.343 453.516 157.265 429.375 171.445 415.195C177.89 408.75 185.976 407.109 196.406 410.273Z" fill="#4576D4"/>
<path d="M454.922 379.805C442.031 382.266 429.492 390.82 421.992 402.07C400.899 433.711 419.531 476.484 457.266 482.93C483.047 487.266 509.531 470.039 516.211 444.727C525.938 407.109 493.125 372.305 454.922 379.805ZM475.899 410.859C480.586 413.203 486.094 420.117 487.5 425.508C489.961 434.648 486.797 443.32 478.594 449.531C475.078 452.227 472.852 452.93 466.524 453.281C459.609 453.633 458.203 453.281 453.399 450.234C436.875 439.57 441.094 413.555 460.078 409.102C465.234 407.93 471.445 408.516 475.899 410.859Z" fill="#4576D4"/>
</svg>
