<svg width="47" height="53" viewBox="0 0 47 53" fill="" xmlns="http://www.w3.org/2000/svg">
<path d="M19.7961 0.168866C17.59 0.594691 15.4832 2.08508 14.4545 3.90044C14.0703 4.59521 13.7109 5.61495 13.7109 6.00716V6.26489H23.5017H33.2924V5.98474C33.2924 5.82786 33.1808 5.37962 33.0321 4.99862C32.3505 3.14964 30.8881 1.60323 29.0663 0.785192C27.5171 0.10163 26.7735 -0.0104289 23.4397 0.000777041C21.4939 0.000777041 20.3414 0.0568067 19.7961 0.168866Z" fill="#EAEAEA"/>
<path d="M13.7109 8.11379C13.7109 8.27068 14.343 9.29042 14.628 9.59298C14.8015 9.77227 15.2849 10.0972 15.7187 10.3102L16.4994 10.6912L23.229 10.7248C27.4551 10.7472 30.1197 10.7136 30.4171 10.6463C31.6069 10.355 32.7595 9.41368 33.1437 8.40515L33.28 8.05776H23.4893C18.1106 8.05776 13.7109 8.08018 13.7109 8.11379Z" fill="#EAEAEA"/>
<path d="M11.3688 8.99908C10.8731 9.45852 10.6128 10.2205 10.6128 11.2291C10.6128 12.3609 10.8111 12.8315 11.5671 13.5151C12.5833 14.4452 12.5957 14.434 12.5957 12.1591V10.2205L12.1867 9.4137L11.7778 8.61807L11.3688 8.99908Z" fill="#EAEAEA"/>
<path d="M34.8045 9.43618L34.408 10.243V12.1704C34.408 14.434 34.4204 14.4452 35.4366 13.5151C36.1926 12.8316 36.3909 12.3609 36.3909 11.2291C36.3909 10.1982 36.1306 9.42498 35.6225 8.98795L35.2135 8.62936L34.8045 9.43618Z" fill="#EAEAEA"/>
<path d="M14.6032 13.3919C14.6652 14.6245 14.7395 15.1288 14.9874 15.8124C15.4584 17.1347 16.1028 18.0872 17.2306 19.1069C18.346 20.1154 19.3994 20.7094 20.8742 21.1464C21.7046 21.3929 22.0392 21.4377 23.5016 21.4377C24.964 21.4377 25.2987 21.3929 26.129 21.1464C27.6038 20.7094 28.6572 20.1154 29.7726 19.1069C30.9004 18.0872 31.5449 17.1347 32.0158 15.8124C32.2637 15.1288 32.3381 14.6245 32.4 13.3919C32.462 11.8903 32.4496 11.8343 32.2265 11.9239C32.1026 11.9687 31.7184 12.1144 31.3714 12.2489C30.7641 12.4842 30.6154 12.4842 23.5016 12.4842C16.3879 12.4842 16.2391 12.4842 15.6319 12.2489C15.2972 12.1144 14.9007 11.9687 14.7767 11.9239C14.5537 11.8343 14.5413 11.8903 14.6032 13.3919Z" fill="#EAEAEA"/>
<path d="M20.5273 23.3203C20.5273 24.7098 21.9526 25.9873 23.5017 25.9873C24.7535 25.9873 25.9184 25.1805 26.2778 24.0711C26.4513 23.5556 26.5381 22.9617 26.4513 22.9617C26.4266 22.9617 25.968 23.0401 25.4227 23.1298C23.9107 23.3763 22.6838 23.3427 20.9363 23.0065C20.5397 22.9393 20.5273 22.9393 20.5273 23.3203Z" fill="#EAEAEA"/>
<path d="M14.1448 24.3624C10.811 24.9227 7.92332 27.0406 6.72117 29.7973C6.33697 30.6938 1.00785 45.6873 0.834341 46.3821C0.388182 48.119 1.06981 50.08 2.56941 51.3687C3.27582 51.985 4.4408 52.5678 5.25875 52.7134L5.65534 52.7919V49.3853C5.65534 45.6313 5.71731 45.2055 6.42373 44.0064C7.10536 42.841 8.89 41.6083 10.2161 41.3842L10.6127 41.317V35.2658V29.2258L10.9225 28.9569L11.2199 28.6767H23.5017H35.7835L36.0809 28.9569L36.3908 29.2258V35.2658V41.317L36.8121 41.3842C38.2498 41.6308 40.0468 42.9531 40.7284 44.2754C41.2861 45.3399 41.3481 45.9002 41.3481 49.4861V52.7919L41.7571 52.7134C43.1327 52.4557 44.843 51.2791 45.537 50.1024C46.2682 48.8586 46.4913 47.413 46.1319 46.214C45.537 44.1969 40.369 29.9206 39.96 29.1586C38.8075 26.9958 36.4527 25.2253 33.7882 24.5305C32.5612 24.2055 28.3351 24.0599 28.3351 24.3288C28.3351 24.4297 28.1368 24.8555 27.9013 25.2925C27.3684 26.245 26.6372 26.8838 25.4846 27.3768C24.7534 27.6906 24.5675 27.7242 23.5017 27.7242C22.4359 27.7242 22.25 27.6906 21.494 27.3656C20.3786 26.895 19.635 26.245 19.1021 25.2813C18.8666 24.8555 18.6683 24.4297 18.6683 24.3512C18.6683 24.1383 15.3841 24.1495 14.1448 24.3624Z" fill="#EAEAEA"/>
<path d="M9.68308 43.5021C8.81555 43.9392 8.13392 44.6787 7.83648 45.508C7.67536 45.9674 7.63818 46.6174 7.63818 49.0378V51.9962L12.137 51.9626L16.6233 51.929L17.4041 51.548C17.8379 51.3351 18.3212 51.0101 18.4947 50.8308C18.7798 50.5282 19.4118 49.5085 19.4118 49.3516C19.4118 49.318 17.5652 49.2956 15.322 49.2956H11.2199L10.9224 49.0154L10.6126 48.7465V45.9338C10.6126 44.3986 10.5754 43.1323 10.5258 43.1323C10.4639 43.1323 10.0921 43.3004 9.68308 43.5021Z" fill="#EAEAEA"/>
<path d="M36.3908 45.9338V48.7465L36.081 49.0154L35.7835 49.2956H31.6813C29.4382 49.2956 27.5916 49.3292 27.5916 49.3628C27.5916 49.3964 27.7651 49.7326 27.9881 50.1024C28.4219 50.842 28.8185 51.1782 29.748 51.6264L30.38 51.929L34.8788 51.9626L39.3776 51.9962L39.3404 48.8249L39.3032 45.6537L38.8819 44.9477C38.6464 44.5555 38.2498 44.0848 38.0143 43.9055C37.6301 43.6254 36.6387 43.1323 36.4528 43.1323C36.4156 43.1323 36.3908 44.3986 36.3908 45.9338Z" fill="#EAEAEA"/>
<path d="M29.5771 32.0765C29.5213 32.0964 29.4138 32.1402 29.3381 32.1761C29.2625 32.2159 27.3388 34.1037 25.0647 36.3738L20.9347 40.5038L19.3496 38.9227C18.2663 37.8434 17.7127 37.3177 17.5892 37.254C17.3184 37.1186 16.8843 37.1026 16.5736 37.2221C16.3705 37.2978 16.267 37.3814 15.8528 37.7916C15.2793 38.3691 15.1877 38.5245 15.1837 38.9705C15.1757 39.544 15.0284 39.3648 17.8839 42.2323C19.6204 43.9767 20.4886 44.8171 20.5961 44.8689C20.7993 44.9644 21.0701 44.9644 21.2732 44.8689C21.3847 44.8171 23.0017 43.224 26.5343 39.6834C32.2296 33.9802 31.7915 34.4621 31.7835 33.8727C31.7795 33.4266 31.6879 33.2713 31.1144 32.6938C30.7082 32.2876 30.5967 32.2 30.4015 32.1283C30.1665 32.0406 29.7802 32.0167 29.5771 32.0765Z" fill="#EAEAEA"/>
</svg>
